<svg xmlns="http://www.w3.org/2000/svg" viewBox="0 0 100 125" x="0px" y="0px"><title>ghost2_fear3</title><g fill="#000" fill-rule="evenodd"><path d="M90.5 77c-3.167 2-3.333 0-7.5 2s-3.62 5.112-8.5 7c-4.17 1.613-8.313-1.656-12.18-1.06C58.456 85.533 55.46 90 50 90s-8.457-4.467-12.323-5.062C33.81 84.343 29.667 87.613 25.5 86c-4.88-1.888-4.333-6-8.5-7s-4.333 0-7.5-2S6 69 6 69c20 0-1-59 44-59s24 59 44 59c0 0-.333 6-3.5 8zm-79.838-5.04c.332.922 1.428 2.503 3.192 2.498 1.735-.005 2.51.276 4.08.652 2.782.668 4.327 1.99 6.084 4.426l.356.496c.125.174.222.307.315.43.727.967 1.272 1.428 2.254 1.808.873.338 1.83.238 4.41-.47 3.283-.9 4.748-1.15 6.93-.815 1.468.226 2.8.753 4.263 1.576.4.226.8.468 1.28.768l1.147.73C47.244 85.494 48.476 86 50 86s2.757-.505 5.025-1.942l1.147-.73c.477-.3.878-.54 1.278-.766 1.463-.823 2.795-1.35 4.263-1.577 2.182-.336 3.647-.083 6.93.816 2.582.708 3.54.808 4.413.47 1.348-.522 1.836-.945 2.952-2.373 1.782-2.28 2.964-3.4 5.26-4.503C83.58 74.284 85.065 74 87.126 74c1.217 0 1.88-1.118 2.213-2.04 0 0-4.538-2.135-6.72-6.987-1.55-3.447-2.365-7.186-3.523-14.714-1.115-7.254-1.13-7.344-1.646-9.995C73.93 22.213 66.992 14 50 14s-23.93 8.213-27.45 26.265c-.515 2.65-.53 2.74-1.645 9.994-1.158 7.527-1.974 11.266-3.524 14.713-2.18 4.852-6.718 6.988-6.718 6.988z"/><path d="M65 52c2.76 0 5 .76 5-2s-2.24-2-5-2-5-.76-5 2 2.24 2 5 2zM35 52c2.76 0 5 .76 5-2s-2.24-2-5-2-5-.76-5 2 2.24 2 5 2zM50 72c5.523 0 10 3.523 10-2s-4.477-10-10-10-10 4.477-10 10 4.477 2 10 2z"/></g><text x="0" y="115" fill="#000000" font-size="5px" font-weight="bold" font-family="'Helvetica Neue', Helvetica, Arial-Unicode, Arial, Sans-serif">Created by Arsenty</text><text x="0" y="120" fill="#000000" font-size="5px" font-weight="bold" font-family="'Helvetica Neue', Helvetica, Arial-Unicode, Arial, Sans-serif">from the Noun Project</text></svg>