<svg id="Capa_1" enable-background="new 0 0 512 512" height="512" viewBox="0 0 512 512" width="512" xmlns="http://www.w3.org/2000/svg"><g><path d="m38.47 194.863c15.173-54.029 49.719-100.246 97.276-130.137 34.165-21.474 73.416-33.434 113.512-34.588 33.86-.972 67.609 5.707 98.498 19.394-1.266 4.714-1.952 9.662-1.952 14.77 0 31.429 25.57 56.999 56.999 56.999s56.999-25.57 56.999-56.999-25.569-56.999-56.999-56.999c-15.457 0-29.489 6.194-39.767 16.219-35.815-16.446-75.165-24.5-114.641-23.369-45.444 1.307-89.918 14.854-128.613 39.176-53.869 33.86-93.003 86.216-110.192 147.424-17.066 60.768-11.22 125.311 16.462 181.739l26.931-13.212c-24.427-49.793-29.581-106.764-14.513-160.417zm364.334-157.561c14.889 0 27.001 12.113 27.001 27.001s-12.113 27.002-27.001 27.002-27.002-12.113-27.002-27.002 12.113-27.001 27.002-27.001z"/><path d="m478.8 130.077-26.103 14.78c28.658 50.614 36.625 109.637 22.43 166.197-14.238 56.735-49.364 105.129-98.906 136.268-36.779 23.117-78.371 34.711-120.033 34.71-35.412-.001-70.873-8.385-103.46-25.182 1.919-5.701 2.975-11.796 2.975-18.135 0-31.429-25.57-56.999-56.999-56.999s-56.999 25.57-56.999 56.999 25.57 56.999 56.999 56.999c14.192 0 27.179-5.226 37.167-13.839 37.054 19.712 78.474 30.077 120.544 30.076.481 0 .965-.001 1.447-.004 47.472-.268 93.92-13.833 134.323-39.227 56.119-35.273 95.908-90.094 112.038-154.364 16.077-64.066 7.049-130.931-25.423-188.279zm-380.096 335.639c-14.889 0-27.002-12.113-27.002-27.002s12.113-27.002 27.002-27.002 27.002 12.113 27.002 27.002-12.113 27.002-27.002 27.002z"/><path d="m255.984 111.738c-79.394 0-143.986 64.592-143.986 143.986s64.592 143.987 143.986 143.987 143.986-64.592 143.986-143.986-64.592-143.987-143.986-143.987zm113.001 128.988h-54.548c-2.161-35.186-11.542-67.889-26.908-94.547 42.901 12.373 75.485 49.321 81.456 94.547zm-141.388 0c2.35-34.052 12.298-64.989 28.389-88.454 16.091 23.465 26.039 54.402 28.389 88.454zm56.879 29.997c-2.158 34.644-12.163 66.145-28.491 89.954-16.327-23.809-26.333-55.31-28.49-89.954zm-60.033-124.546c-15.366 26.658-24.747 59.362-26.908 94.549h-54.553c5.971-45.227 38.557-82.177 81.461-94.549zm-81.461 124.546h54.47c1.94 34.968 11.002 67.539 25.977 94.246-42.401-12.658-74.523-49.376-80.447-94.246zm145.561 94.245c14.975-26.707 24.037-59.277 25.977-94.245h54.466c-5.924 44.869-38.044 81.586-80.443 94.245z"/></g></svg>